REM DIRINDEX 1\2\6,1\2\7,1\2\8,1\2\9,1\3\10,1\3\11,1\4\12,1\4\13,1\4\14,1\5\15,1\5\16,1\5\17
REM DIRNAME folder01,folder02,folder03,folder04,folder05,folder06,folder07,folder08,folder09,folder10,folder11,folder12,folder13,folder14,folder15,folder16,folder17
TITLE ""
FILE "1900_3_045 sec08_0732_0748.mp3" MP3
  TRACK 01 AUDIO
    TITLE "0:"
    INDEX 01 00:00:00
  TRACK 02 AUDIO
    TITLE "17:cjc020_7437"
    INDEX 01 00:00:19
  TRACK 03 AUDIO
    TITLE "0:"
    INDEX 01 00:01:22
  TRACK 04 AUDIO
    TITLE "16:cjc020_7438"
    INDEX 01 00:01:28
  TRACK 05 AUDIO
    TITLE "0:"
    INDEX 01 00:02:45
  TRACK 06 AUDIO
    TITLE "17:cjc020_7439"
    INDEX 01 00:03:27
  TRACK 07 AUDIO
    TITLE "0:"
    INDEX 01 00:04:31
  TRACK 08 AUDIO
    TITLE "16:cjc020_7440"
    INDEX 01 00:04:36
  TRACK 09 AUDIO
    TITLE "0:"
    INDEX 01 00:05:46
  TRACK 10 AUDIO
    TITLE "17:cjc020_7441"
    INDEX 01 00:06:24
  TRACK 11 AUDIO
    TITLE "0:"
    INDEX 01 00:07:41
  TRACK 12 AUDIO
    TITLE "16:cjc020_7442"
    INDEX 01 00:07:43
  TRACK 13 AUDIO
    TITLE "0:"
    INDEX 01 00:08:56
  TRACK 14 AUDIO
    TITLE "17:cjc020_7443"
    INDEX 01 00:09:38
  TRACK 15 AUDIO
    TITLE "0:"
    INDEX 01 00:10:53
  TRACK 16 AUDIO
    TITLE "16:cjc020_7444"
    INDEX 01 00:10:59
  TRACK 17 AUDIO
    TITLE "0:"
    INDEX 01 00:11:66
  TRACK 18 AUDIO
    TITLE "17:cjc020_7445"
    INDEX 01 00:12:50
  TRACK 19 AUDIO
    TITLE "0:"
    INDEX 01 00:13:61
  TRACK 20 AUDIO
    TITLE "16:cjc020_7446"
    INDEX 01 00:13:69
  TRACK 21 AUDIO
    TITLE "0:"
    INDEX 01 00:14:68
  TRACK 22 AUDIO
    TITLE "17:cjc020_7447"
    INDEX 01 00:15:50
  TRACK 23 AUDIO
    TITLE "0:"
    INDEX 01 00:16:63
  TRACK 24 AUDIO
    TITLE "16:cjc020_7448"
    INDEX 01 00:16:71
  TRACK 25 AUDIO
    TITLE "0:"
    INDEX 01 00:17:63
  TRACK 26 AUDIO
    TITLE "17:cjc020_7449"
    INDEX 01 00:18:46
  TRACK 27 AUDIO
    TITLE "0:"
    INDEX 01 00:19:58
  TRACK 28 AUDIO
    TITLE "16:cjc020_7450"
    INDEX 01 00:19:65
  TRACK 29 AUDIO
    TITLE "0:"
    INDEX 01 00:20:73
  TRACK 30 AUDIO
    TITLE "17:cjc020_7451"
    INDEX 01 00:21:58
  TRACK 31 AUDIO
    TITLE "0:"
    INDEX 01 00:23:26
  TRACK 32 AUDIO
    TITLE "16:cjc020_7452"
    INDEX 01 00:23:30
  TRACK 33 AUDIO
    TITLE "0:"
    INDEX 01 00:24:63
  TRACK 34 AUDIO
    TITLE "17:cjc020_7453"
    INDEX 01 00:25:46
  TRACK 35 AUDIO
    TITLE "0:"
    INDEX 01 00:26:62
  TRACK 36 AUDIO
    TITLE "16:cjc020_7454"
    INDEX 01 00:26:69
  TRACK 37 AUDIO
    TITLE "0:"
    INDEX 01 00:28:23
  TRACK 38 AUDIO
    TITLE "17:cjc020_7455"
    INDEX 01 00:29:03
  TRACK 39 AUDIO
    TITLE "0:"
    INDEX 01 00:30:22
  TRACK 40 AUDIO
    TITLE "16:cjc020_7456"
    INDEX 01 00:30:26
  TRACK 41 AUDIO
    TITLE "0:"
    INDEX 01 00:31:08
  TRACK 42 AUDIO
    TITLE "17:cjc020_7457"
    INDEX 01 00:32:03
  TRACK 43 AUDIO
    TITLE "0:"
    INDEX 01 00:33:05
  TRACK 44 AUDIO
    TITLE "16:cjc020_7458"
    INDEX 01 00:33:07
  TRACK 45 AUDIO
    TITLE "0:"
    INDEX 01 00:34:30
  TRACK 46 AUDIO
    TITLE "17:cjc020_7459"
    INDEX 01 00:35:14
  TRACK 47 AUDIO
    TITLE "0:"
    INDEX 01 00:36:29
  TRACK 48 AUDIO
    TITLE "16:cjc020_7460"
    INDEX 01 00:36:35
  TRACK 49 AUDIO
    TITLE "0:"
    INDEX 01 00:38:04
  TRACK 50 AUDIO
    TITLE "17:cjc020_7461"
    INDEX 01 00:38:63
  TRACK 51 AUDIO
    TITLE "0:"
    INDEX 01 00:39:74
  TRACK 52 AUDIO
    TITLE "16:cjc020_7462"
    INDEX 01 00:40:07
  TRACK 53 AUDIO
    TITLE "0:"
    INDEX 01 00:41:10
  TRACK 54 AUDIO
    TITLE "17:cjc020_7463"
    INDEX 01 00:41:69
  TRACK 55 AUDIO
    TITLE "0:"
    INDEX 01 00:43:07
  TRACK 56 AUDIO
    TITLE "16:cjc020_7464"
    INDEX 01 00:43:13
  TRACK 57 AUDIO
    TITLE "0:"
    INDEX 01 00:44:34
  TRACK 58 AUDIO
    TITLE "17:cjc020_7465"
    INDEX 01 00:45:16
  TRACK 59 AUDIO
    TITLE "0:"
    INDEX 01 00:47:13
  TRACK 60 AUDIO
    TITLE "16:cjc020_7466"
    INDEX 01 00:47:21
  TRACK 61 AUDIO
    TITLE "0:"
    INDEX 01 00:48:16
  TRACK 62 AUDIO
    TITLE "17:cjc020_7467"
    INDEX 01 00:48:73
  TRACK 63 AUDIO
    TITLE "0:"
    INDEX 01 00:50:58
  TRACK 64 AUDIO
    TITLE "16:cjc020_7468"
    INDEX 01 00:50:66
  TRACK 65 AUDIO
    TITLE "0:"
    INDEX 01 00:51:63
  TRACK 66 AUDIO
    TITLE "17:cjc020_7469"
    INDEX 01 00:52:45
  TRACK 67 AUDIO
    TITLE "0:"
    INDEX 01 00:53:58
  TRACK 68 AUDIO
    TITLE "16:cjc020_7470"
    INDEX 01 00:53:64
  TRACK 69 AUDIO
    TITLE "0:"
    INDEX 01 00:54:62
